<?xml version="1.0" encoding="UTF-8"?><!DOCTYPE svg PUBLIC "-//W3C//DTD SVG 1.1//EN" "http://www.w3.org/Graphics/SVG/1.1/DTD/svg11.dtd"><svg xmlns="http://www.w3.org/2000/svg" xmlns:xlink="http://www.w3.org/1999/xlink"><defs><clipPath id="clip0_481_545"><path d="M0 0h8v24H0z"/></clipPath></defs><symbol id="arrow" viewBox="0 0 8 24"><g clip-path="url(#clip0_481_545)"><path d="M6 8l-5 5 5 5"/></g></symbol><symbol id="cross" viewBox="0 0 24 24"><path d="M17 7l-5 5 5 5M7 17l5-5-5-5"/></symbol><symbol id="dotted" viewBox="0 0 16 16"><path fill-rule="evenodd" clip-rule="evenodd" d="M0 2a2 2 0 114 0 2 2 0 01-4 0zm0 6a2 2 0 114 0 2 2 0 01-4 0zm2 4a2 2 0 100 4 2 2 0 000-4zM6 2a2 2 0 114 0 2 2 0 01-4 0zm2 4a2 2 0 100 4 2 2 0 000-4zm-2 8a2 2 0 114 0 2 2 0 01-4 0zm8-14a2 2 0 100 4 2 2 0 000-4zm-2 8a2 2 0 114 0 2 2 0 01-4 0zm2 4a2 2 0 100 4 2 2 0 000-4z"/></symbol><symbol id="letter" viewBox="0 0 24 24"><path d="M20.125 5a1.875 1.875 0 011.125 3.375l-8.5 6.375a1.254 1.254 0 01-1.5 0l-8.5-6.375A1.875 1.875 0 013.875 5h16.25zM10.5 15.75c.89.668 2.11.668 3 0L22 9.375V17.5c0 1.379-1.121 2.5-2.5 2.5h-15C3.12 20 2 18.879 2 17.5V9.375l8.5 6.375z"/></symbol><symbol id="mount" viewBox="0 0 24 24"><path d="M19.496 3H4.47C3.12 3 2 4.121 2 5.504v12.522c0 1.384 1.121 2.505 2.47 2.505h15.026A2.504 2.504 0 0022 18.026V5.504A2.483 2.483 0 0019.496 3zM6.348 5.504c1.037 0 1.878.841 1.878 1.879A1.856 1.856 0 016.348 9.26 1.856 1.856 0 014.47 7.383c0-1.038.875-1.879 1.878-1.879zm13.109 12.194a.625.625 0 01-.552.328H5.21a.626.626 0 01-.506-.995l2.739-3.756a.627.627 0 011.011 0l1.27 1.742 3.651-5.444a.592.592 0 01.521-.312c.208 0 .405.105.521.279l5.009 7.513c.129.19.14.437.03.645z"/></symbol><symbol id="pin" viewBox="0 0 24 24"><path d="M11.403 20.768C9.417 18.354 5 12.504 5 9.218 5 5.231 8.27 2 12.304 2c4.033 0 7.305 3.231 7.305 7.218 0 3.286-4.451 9.136-6.403 11.55a1.158 1.158 0 01-1.803 0zm.901-9.144c1.343 0 2.435-1.079 2.435-2.406 0-1.327-1.092-2.406-2.435-2.406S9.87 7.892 9.87 9.218c0 1.328 1.091 2.406 2.434 2.406z"/></symbol></svg>